<svg width="192" height="192" viewBox="0 0 192 192" fill="none" xmlns="http://www.w3.org/2000/svg">
<g clip-path="url(#clip0_1_2)">
<rect width="192" height="192" fill="white"/>
<ellipse cx="96" cy="96" rx="49" ry="50" fill="#9686E6"/>
<ellipse cx="96" cy="96.5" rx="44" ry="45.5" fill="#0B111E"/>
<path d="M96.5227 111V81.9091H106.352C108.625 81.9091 110.491 82.2973 111.949 83.0739C113.407 83.8409 114.487 84.8968 115.188 86.2415C115.888 87.5862 116.239 89.1155 116.239 90.8295C116.239 92.5436 115.888 94.0634 115.188 95.3892C114.487 96.715 113.412 97.7566 111.963 98.5142C110.514 99.2623 108.663 99.6364 106.409 99.6364H98.4545V96.4545H106.295C107.848 96.4545 109.098 96.2273 110.045 95.7727C111.002 95.3182 111.693 94.6742 112.119 93.8409C112.555 92.9981 112.773 91.9943 112.773 90.8295C112.773 89.6648 112.555 88.6468 112.119 87.7756C111.684 86.9044 110.988 86.232 110.031 85.7585C109.075 85.2756 107.811 85.0341 106.239 85.0341H100.045V111H96.5227ZM110.216 97.9318L117.375 111H113.284L106.239 97.9318H110.216Z" fill="white"/>
<path d="M78.5227 111V81.9091H82.0455V94.8636H97.5568V81.9091H101.08V111H97.5568V97.9886H82.0455V111H78.5227Z" fill="white"/>
<path d="M17.43 185.51C17.43 184.83 17.5833 184.22 17.89 183.68C18.1967 183.133 18.6133 182.707 19.14 182.4C19.6733 182.093 20.2633 181.94 20.91 181.94C21.67 181.94 22.3333 182.123 22.9 182.49C23.4667 182.857 23.88 183.377 24.14 184.05H23.05C22.8567 183.63 22.5767 183.307 22.21 183.08C21.85 182.853 21.4167 182.74 20.91 182.74C20.4233 182.74 19.9867 182.853 19.6 183.08C19.2133 183.307 18.91 183.63 18.69 184.05C18.47 184.463 18.36 184.95 18.36 185.51C18.36 186.063 18.47 186.55 18.69 186.97C18.91 187.383 19.2133 187.703 19.6 187.93C19.9867 188.157 20.4233 188.27 20.91 188.27C21.4167 188.27 21.85 188.16 22.21 187.94C22.5767 187.713 22.8567 187.39 23.05 186.97H24.14C23.88 187.637 23.4667 188.153 22.9 188.52C22.3333 188.88 21.67 189.06 20.91 189.06C20.2633 189.06 19.6733 188.91 19.14 188.61C18.6133 188.303 18.1967 187.88 17.89 187.34C17.5833 186.8 17.43 186.19 17.43 185.51ZM26.4046 184.41C26.5646 184.097 26.7913 183.853 27.0846 183.68C27.3846 183.507 27.7479 183.42 28.1746 183.42V184.36H27.9346C26.9146 184.36 26.4046 184.913 26.4046 186.02V189H25.4946V183.52H26.4046V184.41ZM34.2251 186.05C34.2251 186.223 34.2151 186.407 34.1951 186.6H29.8151C29.8484 187.14 30.0317 187.563 30.3651 187.87C30.7051 188.17 31.1151 188.32 31.5951 188.32C31.9884 188.32 32.3151 188.23 32.5751 188.05C32.8417 187.863 33.0284 187.617 33.1351 187.31H34.1151C33.9684 187.837 33.6751 188.267 33.2351 188.6C32.7951 188.927 32.2484 189.09 31.5951 189.09C31.0751 189.09 30.6084 188.973 30.1951 188.74C29.7884 188.507 29.4684 188.177 29.2351 187.75C29.0017 187.317 28.8851 186.817 28.8851 186.25C28.8851 185.683 28.9984 185.187 29.2251 184.76C29.4517 184.333 29.7684 184.007 30.1751 183.78C30.5884 183.547 31.0617 183.43 31.5951 183.43C32.1151 183.43 32.5751 183.543 32.9751 183.77C33.3751 183.997 33.6817 184.31 33.8951 184.71C34.1151 185.103 34.2251 185.55 34.2251 186.05ZM33.2851 185.86C33.2851 185.513 33.2084 185.217 33.0551 184.97C32.9017 184.717 32.6917 184.527 32.4251 184.4C32.1651 184.267 31.8751 184.2 31.5551 184.2C31.0951 184.2 30.7017 184.347 30.3751 184.64C30.0551 184.933 29.8717 185.34 29.8251 185.86H33.2851ZM35.0863 186.24C35.0863 185.68 35.1996 185.19 35.4263 184.77C35.6529 184.343 35.9629 184.013 36.3563 183.78C36.7563 183.547 37.1996 183.43 37.6863 183.43C38.1663 183.43 38.5829 183.533 38.9363 183.74C39.2896 183.947 39.5529 184.207 39.7263 184.52V183.52H40.6463V189H39.7263V187.98C39.5463 188.3 39.2763 188.567 38.9163 188.78C38.5629 188.987 38.1496 189.09 37.6763 189.09C37.1896 189.09 36.7496 188.97 36.3563 188.73C35.9629 188.49 35.6529 188.153 35.4263 187.72C35.1996 187.287 35.0863 186.793 35.0863 186.24ZM39.7263 186.25C39.7263 185.837 39.6429 185.477 39.4763 185.17C39.3096 184.863 39.0829 184.63 38.7963 184.47C38.5163 184.303 38.2063 184.22 37.8663 184.22C37.5263 184.22 37.2163 184.3 36.9363 184.46C36.6563 184.62 36.4329 184.853 36.2663 185.16C36.0996 185.467 36.0163 185.827 36.0163 186.24C36.0163 186.66 36.0996 187.027 36.2663 187.34C36.4329 187.647 36.6563 187.883 36.9363 188.05C37.2163 188.21 37.5263 188.29 37.8663 188.29C38.2063 188.29 38.5163 188.21 38.7963 188.05C39.0829 187.883 39.3096 187.647 39.4763 187.34C39.6429 187.027 39.7263 186.663 39.7263 186.25ZM43.2941 184.27V187.5C43.2941 187.767 43.3507 187.957 43.4641 188.07C43.5774 188.177 43.7741 188.23 44.0541 188.23H44.7241V189H43.9041C43.3974 189 43.0174 188.883 42.7641 188.65C42.5107 188.417 42.3841 188.033 42.3841 187.5V184.27H41.6741V183.52H42.3841V182.14H43.2941V183.52H44.7241V184.27H43.2941ZM50.8266 186.05C50.8266 186.223 50.8166 186.407 50.7966 186.6H46.4166C46.45 187.14 46.6333 187.563 46.9666 187.87C47.3066 188.17 47.7166 188.32 48.1966 188.32C48.59 188.32 48.9166 188.23 49.1766 188.05C49.4433 187.863 49.63 187.617 49.7366 187.31H50.7166C50.57 187.837 50.2766 188.267 49.8366 188.6C49.3966 188.927 48.85 189.09 48.1966 189.09C47.6766 189.09 47.21 188.973 46.7966 188.74C46.39 188.507 46.07 188.177 45.8366 187.75C45.6033 187.317 45.4866 186.817 45.4866 186.25C45.4866 185.683 45.6 185.187 45.8266 184.76C46.0533 184.333 46.37 184.007 46.7766 183.78C47.19 183.547 47.6633 183.43 48.1966 183.43C48.7166 183.43 49.1766 183.543 49.5766 183.77C49.9766 183.997 50.2833 184.31 50.4966 184.71C50.7166 185.103 50.8266 185.55 50.8266 186.05ZM49.8866 185.86C49.8866 185.513 49.81 185.217 49.6566 184.97C49.5033 184.717 49.2933 184.527 49.0266 184.4C48.7666 184.267 48.4766 184.2 48.1566 184.2C47.6966 184.2 47.3033 184.347 46.9766 184.64C46.6566 184.933 46.4733 185.34 46.4266 185.86H49.8866ZM51.6878 186.24C51.6878 185.68 51.8011 185.19 52.0278 184.77C52.2545 184.343 52.5645 184.013 52.9578 183.78C53.3578 183.547 53.8045 183.43 54.2978 183.43C54.7245 183.43 55.1211 183.53 55.4878 183.73C55.8545 183.923 56.1345 184.18 56.3278 184.5V181.6H57.2478V189H56.3278V187.97C56.1478 188.297 55.8811 188.567 55.5278 188.78C55.1745 188.987 54.7611 189.09 54.2878 189.09C53.8011 189.09 53.3578 188.97 52.9578 188.73C52.5645 188.49 52.2545 188.153 52.0278 187.72C51.8011 187.287 51.6878 186.793 51.6878 186.24ZM56.3278 186.25C56.3278 185.837 56.2445 185.477 56.0778 185.17C55.9111 184.863 55.6845 184.63 55.3978 184.47C55.1178 184.303 54.8078 184.22 54.4678 184.22C54.1278 184.22 53.8178 184.3 53.5378 184.46C53.2578 184.62 53.0345 184.853 52.8678 185.16C52.7011 185.467 52.6178 185.827 52.6178 186.24C52.6178 186.66 52.7011 187.027 52.8678 187.34C53.0345 187.647 53.2578 187.883 53.5378 188.05C53.8178 188.21 54.1278 188.29 54.4678 188.29C54.8078 188.29 55.1178 188.21 55.3978 188.05C55.6845 187.883 55.9111 187.647 56.0778 187.34C56.2445 187.027 56.3278 186.663 56.3278 186.25ZM68.7516 183.52L67.0416 189H66.1016L64.7816 184.65L63.4616 189H62.5216L60.8016 183.52H61.7316L62.9916 188.12L64.3516 183.52H65.2816L66.6116 188.13L67.8516 183.52H68.7516ZM70.1248 182.63C69.9514 182.63 69.8048 182.57 69.6848 182.45C69.5648 182.33 69.5048 182.183 69.5048 182.01C69.5048 181.837 69.5648 181.69 69.6848 181.57C69.8048 181.45 69.9514 181.39 70.1248 181.39C70.2914 181.39 70.4314 181.45 70.5448 181.57C70.6648 181.69 70.7248 181.837 70.7248 182.01C70.7248 182.183 70.6648 182.33 70.5448 182.45C70.4314 182.57 70.2914 182.63 70.1248 182.63ZM70.5648 183.52V189H69.6548V183.52H70.5648ZM73.2257 184.27V187.5C73.2257 187.767 73.2824 187.957 73.3957 188.07C73.509 188.177 73.7057 188.23 73.9857 188.23H74.6557V189H73.8357C73.329 189 72.949 188.883 72.6957 188.65C72.4424 188.417 72.3157 188.033 72.3157 187.5V184.27H71.6057V183.52H72.3157V182.14H73.2257V183.52H74.6557V184.27H73.2257ZM78.4783 183.42C78.8916 183.42 79.2649 183.51 79.5983 183.69C79.9316 183.863 80.1916 184.127 80.3783 184.48C80.5716 184.833 80.6683 185.263 80.6683 185.77V189H79.7683V185.9C79.7683 185.353 79.6316 184.937 79.3583 184.65C79.0849 184.357 78.7116 184.21 78.2383 184.21C77.7583 184.21 77.3749 184.36 77.0883 184.66C76.8083 184.96 76.6683 185.397 76.6683 185.97V189H75.7583V181.6H76.6683V184.3C76.8483 184.02 77.0949 183.803 77.4083 183.65C77.7283 183.497 78.0849 183.42 78.4783 183.42ZM84.0508 189.7H94.0508V179.7H84.0508V189.7ZM98.3968 184.54C98.5835 184.213 98.8568 183.947 99.2168 183.74C99.5768 183.533 99.9868 183.43 100.447 183.43C100.94 183.43 101.383 183.547 101.777 183.78C102.17 184.013 102.48 184.343 102.707 184.77C102.933 185.19 103.047 185.68 103.047 186.24C103.047 186.793 102.933 187.287 102.707 187.72C102.48 188.153 102.167 188.49 101.767 188.73C101.373 188.97 100.933 189.09 100.447 189.09C99.9735 189.09 99.5568 188.987 99.1968 188.78C98.8435 188.573 98.5768 188.31 98.3968 187.99V189H97.4868V181.6H98.3968V184.54ZM102.117 186.24C102.117 185.827 102.033 185.467 101.867 185.16C101.7 184.853 101.473 184.62 101.187 184.46C100.907 184.3 100.597 184.22 100.257 184.22C99.9235 184.22 99.6135 184.303 99.3268 184.47C99.0468 184.63 98.8201 184.867 98.6468 185.18C98.4801 185.487 98.3968 185.843 98.3968 186.25C98.3968 186.663 98.4801 187.027 98.6468 187.34C98.8201 187.647 99.0468 187.883 99.3268 188.05C99.6135 188.21 99.9235 188.29 100.257 188.29C100.597 188.29 100.907 188.21 101.187 188.05C101.473 187.883 101.7 187.647 101.867 187.34C102.033 187.027 102.117 186.66 102.117 186.24ZM108.965 183.52L105.665 191.58H104.725L105.805 188.94L103.595 183.52H104.605L106.325 187.96L108.025 183.52H108.965ZM117.915 182.03V189H117.005V185.84H113.455V189H112.545V182.03H113.455V185.09H117.005V182.03H117.915ZM122.329 189L121.029 186.96L119.779 189H118.829L120.599 186.28L118.829 183.52H119.859L121.159 185.55L122.399 183.52H123.349L121.589 186.23L123.359 189H122.329ZM125.164 184.41C125.324 184.097 125.551 183.853 125.844 183.68C126.144 183.507 126.508 183.42 126.934 183.42V184.36H126.694C125.674 184.36 125.164 184.913 125.164 186.02V189H124.254V183.52H125.164V184.41ZM129.925 189.09C129.505 189.09 129.128 189.02 128.795 188.88C128.462 188.733 128.198 188.533 128.005 188.28C127.812 188.02 127.705 187.723 127.685 187.39H128.625C128.652 187.663 128.778 187.887 129.005 188.06C129.238 188.233 129.542 188.32 129.915 188.32C130.262 188.32 130.535 188.243 130.735 188.09C130.935 187.937 131.035 187.743 131.035 187.51C131.035 187.27 130.928 187.093 130.715 186.98C130.502 186.86 130.172 186.743 129.725 186.63C129.318 186.523 128.985 186.417 128.725 186.31C128.472 186.197 128.252 186.033 128.065 185.82C127.885 185.6 127.795 185.313 127.795 184.96C127.795 184.68 127.878 184.423 128.045 184.19C128.212 183.957 128.448 183.773 128.755 183.64C129.062 183.5 129.412 183.43 129.805 183.43C130.412 183.43 130.902 183.583 131.275 183.89C131.648 184.197 131.848 184.617 131.875 185.15H130.965C130.945 184.863 130.828 184.633 130.615 184.46C130.408 184.287 130.128 184.2 129.775 184.2C129.448 184.2 129.188 184.27 128.995 184.41C128.802 184.55 128.705 184.733 128.705 184.96C128.705 185.14 128.762 185.29 128.875 185.41C128.995 185.523 129.142 185.617 129.315 185.69C129.495 185.757 129.742 185.833 130.055 185.92C130.448 186.027 130.768 186.133 131.015 186.24C131.262 186.34 131.472 186.493 131.645 186.7C131.825 186.907 131.918 187.177 131.925 187.51C131.925 187.81 131.842 188.08 131.675 188.32C131.508 188.56 131.272 188.75 130.965 188.89C130.665 189.023 130.318 189.09 129.925 189.09ZM135.929 183.42C136.343 183.42 136.716 183.51 137.049 183.69C137.383 183.863 137.643 184.127 137.829 184.48C138.023 184.833 138.119 185.263 138.119 185.77V189H137.219V185.9C137.219 185.353 137.083 184.937 136.809 184.65C136.536 184.357 136.163 184.21 135.689 184.21C135.209 184.21 134.826 184.36 134.539 184.66C134.259 184.96 134.119 185.397 134.119 185.97V189H133.209V181.6H134.119V184.3C134.299 184.02 134.546 183.803 134.859 183.65C135.179 183.497 135.536 183.42 135.929 183.42ZM140.516 184.41C140.676 184.097 140.903 183.853 141.196 183.68C141.496 183.507 141.859 183.42 142.286 183.42V184.36H142.046C141.026 184.36 140.516 184.913 140.516 186.02V189H139.606V183.52H140.516V184.41ZM142.996 186.24C142.996 185.68 143.11 185.19 143.336 184.77C143.563 184.343 143.873 184.013 144.266 183.78C144.666 183.547 145.11 183.43 145.596 183.43C146.076 183.43 146.493 183.533 146.846 183.74C147.2 183.947 147.463 184.207 147.636 184.52V183.52H148.556V189H147.636V187.98C147.456 188.3 147.186 188.567 146.826 188.78C146.473 188.987 146.06 189.09 145.586 189.09C145.1 189.09 144.66 188.97 144.266 188.73C143.873 188.49 143.563 188.153 143.336 187.72C143.11 187.287 142.996 186.793 142.996 186.24ZM147.636 186.25C147.636 185.837 147.553 185.477 147.386 185.17C147.22 184.863 146.993 184.63 146.706 184.47C146.426 184.303 146.116 184.22 145.776 184.22C145.436 184.22 145.126 184.3 144.846 184.46C144.566 184.62 144.343 184.853 144.176 185.16C144.01 185.467 143.926 185.827 143.926 186.24C143.926 186.66 144.01 187.027 144.176 187.34C144.343 187.647 144.566 187.883 144.846 188.05C145.126 188.21 145.436 188.29 145.776 188.29C146.116 188.29 146.426 188.21 146.706 188.05C146.993 187.883 147.22 187.647 147.386 187.34C147.553 187.027 147.636 186.663 147.636 186.25ZM151.204 184.27V187.5C151.204 187.767 151.261 187.957 151.374 188.07C151.488 188.177 151.684 188.23 151.964 188.23H152.634V189H151.814C151.308 189 150.928 188.883 150.674 188.65C150.421 188.417 150.294 188.033 150.294 187.5V184.27H149.584V183.52H150.294V182.14H151.204V183.52H152.634V184.27H151.204ZM156.457 183.42C156.87 183.42 157.243 183.51 157.577 183.69C157.91 183.863 158.17 184.127 158.357 184.48C158.55 184.833 158.647 185.263 158.647 185.77V189H157.747V185.9C157.747 185.353 157.61 184.937 157.337 184.65C157.063 184.357 156.69 184.21 156.217 184.21C155.737 184.21 155.353 184.36 155.067 184.66C154.787 184.96 154.647 185.397 154.647 185.97V189H153.737V181.6H154.647V184.3C154.827 184.02 155.073 183.803 155.387 183.65C155.707 183.497 156.063 183.42 156.457 183.42ZM162.523 189.09C162.01 189.09 161.543 188.973 161.123 188.74C160.71 188.507 160.383 188.177 160.143 187.75C159.91 187.317 159.793 186.817 159.793 186.25C159.793 185.69 159.913 185.197 160.153 184.77C160.4 184.337 160.733 184.007 161.153 183.78C161.573 183.547 162.043 183.43 162.563 183.43C163.083 183.43 163.553 183.547 163.973 183.78C164.393 184.007 164.723 184.333 164.963 184.76C165.21 185.187 165.333 185.683 165.333 186.25C165.333 186.817 165.207 187.317 164.953 187.75C164.707 188.177 164.37 188.507 163.943 188.74C163.517 188.973 163.043 189.09 162.523 189.09ZM162.523 188.29C162.85 188.29 163.157 188.213 163.443 188.06C163.73 187.907 163.96 187.677 164.133 187.37C164.313 187.063 164.403 186.69 164.403 186.25C164.403 185.81 164.317 185.437 164.143 185.13C163.97 184.823 163.743 184.597 163.463 184.45C163.183 184.297 162.88 184.22 162.553 184.22C162.22 184.22 161.913 184.297 161.633 184.45C161.36 184.597 161.14 184.823 160.973 185.13C160.807 185.437 160.723 185.81 160.723 186.25C160.723 186.697 160.803 187.073 160.963 187.38C161.13 187.687 161.35 187.917 161.623 188.07C161.897 188.217 162.197 188.29 162.523 188.29ZM167.44 184.41C167.6 184.097 167.826 183.853 168.12 183.68C168.42 183.507 168.783 183.42 169.21 183.42V184.36H168.97C167.95 184.36 167.44 184.913 167.44 186.02V189H166.53V183.52H167.44V184.41ZM175.26 186.05C175.26 186.223 175.25 186.407 175.23 186.6H170.85C170.884 187.14 171.067 187.563 171.4 187.87C171.74 188.17 172.15 188.32 172.63 188.32C173.024 188.32 173.35 188.23 173.61 188.05C173.877 187.863 174.064 187.617 174.17 187.31H175.15C175.004 187.837 174.71 188.267 174.27 188.6C173.83 188.927 173.284 189.09 172.63 189.09C172.11 189.09 171.644 188.973 171.23 188.74C170.824 188.507 170.504 188.177 170.27 187.75C170.037 187.317 169.92 186.817 169.92 186.25C169.92 185.683 170.034 185.187 170.26 184.76C170.487 184.333 170.804 184.007 171.21 183.78C171.624 183.547 172.097 183.43 172.63 183.43C173.15 183.43 173.61 183.543 174.01 183.77C174.41 183.997 174.717 184.31 174.93 184.71C175.15 185.103 175.26 185.55 175.26 186.05ZM174.32 185.86C174.32 185.513 174.244 185.217 174.09 184.97C173.937 184.717 173.727 184.527 173.46 184.4C173.2 184.267 172.91 184.2 172.59 184.2C172.13 184.2 171.737 184.347 171.41 184.64C171.09 184.933 170.907 185.34 170.86 185.86H174.32ZM176.751 189.06C176.578 189.06 176.431 189 176.311 188.88C176.191 188.76 176.131 188.613 176.131 188.44C176.131 188.267 176.191 188.12 176.311 188C176.431 187.88 176.578 187.82 176.751 187.82C176.918 187.82 177.058 187.88 177.171 188C177.291 188.12 177.351 188.267 177.351 188.44C177.351 188.613 177.291 188.76 177.171 188.88C177.058 189 176.918 189.06 176.751 189.06Z" fill="black"/>
</g>
<defs>
<clipPath id="clip0_1_2">
<rect width="192" height="192" fill="white"/>
</clipPath>
</defs>
</svg>
